<?xml version="1.0" standalone="no"?>
<!DOCTYPE svg PUBLIC "-//W3C//DTD SVG 20010904//EN"
 "http://www.w3.org/TR/2001/REC-SVG-20010904/DTD/svg10.dtd">
<svg version="1.0" xmlns="http://www.w3.org/2000/svg"
 width="1619.000000pt" height="1619.000000pt" viewBox="0 0 1619.000000 1619.000000"
 preserveAspectRatio="xMidYMid meet">
<metadata>
Created by potrace 1.16, written by Peter Selinger 2001-2019
</metadata>
<g transform="translate(0.000000,1619.000000) scale(0.100000,-0.100000)"
fill="#000000" stroke="none">
<path d="M4068 15667 c-51 -15 -110 -55 -134 -92 -8 -12 -28 -56 -44 -96 -15
-41 -47 -114 -70 -164 -84 -182 -141 -376 -194 -667 -88 -475 -74 -802 55
-1308 63 -246 100 -355 154 -452 35 -62 43 -85 39 -110 -8 -49 25 -75 110 -87
113 -16 199 -1 264 46 55 41 49 88 -63 417 -101 301 -151 482 -187 684 -52
294 -14 824 87 1208 13 51 45 145 70 210 25 65 51 139 57 165 l11 48 46 -31
c99 -68 403 -296 521 -393 134 -109 550 -424 718 -543 57 -41 131 -99 165
-131 99 -92 120 -101 223 -101 74 0 103 6 174 31 226 83 655 172 1082 226 99
12 224 17 486 18 236 1 356 5 363 12 14 14 8 54 -11 64 -22 11 -284 29 -515
36 -305 9 -619 -18 -1022 -87 -204 -36 -253 -47 -416 -97 l-118 -36 -42 42
c-43 44 -388 316 -571 450 -55 41 -177 136 -270 210 -333 268 -576 445 -682
497 -62 31 -85 37 -156 40 -50 2 -102 -1 -130 -9z"/>
<path d="M11753 15665 c-106 -33 -339 -196 -749 -526 -93 -74 -215 -169 -270
-210 -183 -134 -528 -406 -571 -450 l-42 -42 -118 36 c-163 50 -212 61 -416
97 -403 69 -717 96 -1022 87 -231 -7 -493 -25 -515 -36 -19 -10 -25 -50 -11
-64 7 -7 127 -11 363 -12 262 -1 387 -6 486 -18 427 -54 856 -143 1082 -226
71 -25 100 -31 174 -31 103 0 124 9 223 101 34 32 108 90 165 131 168 119 584
434 718 543 118 97 422 325 521 393 l46 31 11 -48 c6 -26 32 -100 57 -165 75
-191 122 -402 162 -721 26 -214 24 -533 -5 -697 -36 -202 -86 -383 -187 -684
-112 -329 -118 -376 -62 -417 64 -47 150 -62 263 -46 85 12 118 38 110 87 -4
25 4 48 39 110 54 97 91 206 154 452 129 506 143 833 55 1308 -53 294 -110
486 -196 672 -25 52 -57 128 -73 169 -51 135 -119 183 -265 187 -48 1 -103 -3
-127 -11z"/>
<path d="M3776 12060 c-84 -74 -186 -230 -220 -335 -23 -73 -43 -215 -61 -435
-38 -466 -105 -718 -281 -1060 -74 -143 -247 -404 -389 -586 -38 -49 -256
-278 -485 -509 -501 -507 -548 -569 -538 -705 6 -78 27 -114 129 -226 100
-109 133 -167 123 -211 -4 -15 -33 -89 -64 -163 -84 -195 -232 -622 -273 -785
-65 -258 -103 -509 -113 -745 -10 -221 24 -328 129 -412 29 -22 81 -55 117
-71 36 -17 66 -31 68 -32 2 -2 -20 -45 -47 -96 -92 -173 -126 -351 -125 -659
1 -188 4 -225 22 -294 51 -186 143 -258 354 -279 l109 -11 -7 -56 c-14 -103
-9 -349 10 -443 54 -278 236 -572 428 -693 118 -75 319 -107 530 -85 321 33
691 98 1118 195 299 68 508 87 836 76 106 -3 125 -2 160 16 31 16 40 27 42 51
4 38 -28 63 -108 86 -119 33 -206 42 -410 42 -283 -1 -518 -29 -955 -115 -326
-64 -617 -118 -735 -136 -87 -14 -97 -14 -133 2 -100 45 -261 282 -330 484
-48 141 -58 243 -51 488 l7 220 -34 31 c-54 49 -116 66 -252 65 l-117 0 -20
40 c-38 80 -52 157 -57 318 -9 259 21 432 107 616 71 153 67 196 -23 250 -29
17 -70 39 -92 48 -66 27 -106 63 -134 123 -24 52 -26 65 -25 186 1 144 19 297
65 545 36 196 63 309 131 530 85 280 115 371 162 492 39 98 46 127 46 185 -1
93 -23 138 -119 237 -98 101 -141 161 -141 196 0 38 68 137 161 235 41 44 205
208 363 365 457 453 468 465 665 760 236 352 336 597 408 999 25 138 27 165
28 501 1 288 5 367 18 421 24 98 53 170 97 238 22 34 41 76 43 94 2 32 2 32
-50 35 -45 3 -55 -1 -87 -28z"/>
<path d="M12125 12080 c-10 -16 7 -63 46 -123 43 -66 72 -139 96 -236 13 -54
17 -133 18 -421 1 -336 3 -363 28 -501 72 -402 172 -647 408 -999 197 -295
208 -307 665 -760 158 -157 322 -321 363 -365 93 -98 161 -197 161 -235 0 -35
-43 -95 -141 -196 -96 -99 -118 -144 -119 -237 0 -58 7 -87 46 -185 47 -121
77 -212 162 -492 68 -221 95 -334 131 -530 46 -248 64 -401 65 -545 1 -121 -1
-134 -25 -186 -28 -60 -68 -96 -134 -123 -22 -9 -63 -31 -92 -48 -90 -54 -94
-97 -23 -250 86 -184 116 -357 107 -616 -5 -161 -19 -238 -57 -318 l-20 -40
-117 0 c-136 1 -198 -16 -252 -65 l-34 -31 7 -220 c7 -245 -3 -347 -51 -488
-69 -202 -230 -439 -330 -484 -36 -16 -46 -16 -133 -2 -118 18 -409 72 -735
136 -437 86 -672 114 -955 115 -204 0 -291 -9 -410 -42 -80 -23 -112 -48 -108
-86 2 -24 11 -35 42 -51 35 -18 54 -19 160 -16 328 11 537 -8 836 -76 427 -97
797 -162 1118 -195 211 -22 412 10 530 85 192 121 374 415 428 693 19 94 24
340 10 443 l-7 56 109 11 c211 21 303 93 354 279 18 69 21 106 22 294 1 308
-33 486 -125 659 -27 51 -49 94 -47 96 2 1 32 15 68 32 199 92 258 208 246
483 -10 236 -48 487 -113 745 -41 163 -189 590 -273 785 -31 74 -60 148 -64
163 -10 44 23 102 123 211 102 112 123 148 129 226 10 136 -37 198 -538 705
-229 231 -447 460 -485 509 -142 182 -315 443 -389 586 -176 342 -243 594
-281 1060 -33 403 -64 508 -197 677 -79 100 -110 123 -168 123 -27 0 -51 -4
-55 -10z"/>
<path d="M5891 11095 c-40 -8 -101 -27 -135 -44 -111 -55 -206 -170 -206 -252
0 -19 -9 -63 -20 -97 -39 -124 -23 -221 48 -295 90 -93 207 -136 392 -144 242
-10 373 28 475 138 78 85 98 143 103 302 4 122 3 130 -23 182 -83 171 -353
261 -634 210z"/>
<path d="M9825 11091 c-152 -32 -260 -104 -310 -206 -26 -52 -27 -60 -23 -182
5 -159 25 -217 103 -302 102 -110 233 -148 475 -138 185 8 302 51 392 144 71
74 87 171 48 295 -11 34 -20 78 -20 97 0 82 -95 197 -206 252 -114 57 -303 73
-459 40z"/>
<path d="M7550 6950 c-19 -5 -60 -13 -91 -20 -87 -17 -264 -109 -335 -174
-126 -114 -126 -207 0 -281 154 -90 422 -128 896 -128 474 0 742 38 896 128
126 74 126 167 0 281 -71 65 -248 157 -335 174 -31 7 -75 16 -98 21 -100 22
-337 -8 -393 -49 -31 -24 -39 -71 -14 -89 23 -17 83 -16 114 2 62 36 253 -3
351 -71 37 -25 99 -98 99 -116 0 -12 -51 -34 -120 -52 -36 -8 -163 -25 -282
-36 l-218 -21 -217 21 c-120 11 -247 28 -283 36 -69 18 -120 40 -120 52 0 18
62 91 99 116 98 68 289 107 351 71 31 -18 91 -19 114 -2 25 18 17 65 -14 89
-56 41 -301 71 -400 48z"/>
<path d="M7935 6061 c-44 -11 -88 -36 -201 -111 -212 -143 -490 -259 -726
-306 -49 -9 -88 -21 -88 -25 0 -5 -9 -9 -20 -9 -17 0 -20 -7 -20 -43 0 -37 3
-44 30 -55 41 -18 177 -17 270 3 150 32 350 98 497 166 95 43 293 160 313 184
16 19 44 19 60 0 20 -24 218 -141 313 -184 147 -68 347 -134 497 -166 93 -20
229 -21 270 -3 27 11 30 18 30 55 0 36 -3 43 -20 43 -11 0 -20 4 -20 9 0 4
-39 16 -87 25 -237 47 -516 164 -727 306 -149 99 -177 112 -265 116 -42 2 -89
0 -106 -5z"/>
<path d="M5864 3513 c-5 -18 -2 -30 9 -38 9 -6 26 -34 38 -61 42 -97 9 -245
-106 -475 -95 -190 -89 -218 49 -219 71 0 85 3 140 34 72 40 314 136 359 142
27 4 42 -4 101 -51 38 -31 96 -70 130 -87 52 -27 74 -32 155 -36 123 -6 180 8
271 66 l75 48 50 -12 c63 -15 245 -17 316 -4 59 11 176 63 253 113 72 46 101
131 54 154 -70 34 -153 23 -211 -27 -47 -42 -116 -79 -194 -104 -52 -17 -55
-17 -170 10 -106 24 -122 26 -180 15 -61 -11 -131 -45 -200 -98 -41 -32 -52
-28 -143 49 -80 68 -116 87 -201 105 -60 12 -76 11 -165 -6 -55 -11 -135 -32
-179 -48 l-80 -28 22 65 c62 187 50 406 -28 486 -31 32 -38 34 -96 34 -59 0
-63 -1 -69 -27z"/>
<path d="M10011 3506 c-78 -80 -90 -299 -28 -486 l22 -65 -80 28 c-44 16 -124
37 -179 48 -89 17 -105 18 -165 6 -85 -18 -121 -37 -201 -105 -91 -77 -102
-81 -143 -49 -69 53 -139 87 -200 98 -58 11 -74 9 -180 -15 -115 -27 -118 -27
-170 -10 -78 25 -147 62 -194 104 -58 50 -141 61 -210 27 -48 -23 -19 -108 53
-154 77 -50 194 -102 253 -113 71 -13 253 -11 316 4 l50 12 75 -48 c91 -58
148 -72 271 -66 81 4 103 9 155 36 34 17 92 56 130 87 59 47 74 55 101 51 45
-6 287 -102 359 -142 55 -31 69 -34 140 -34 138 1 144 29 49 219 -112 223
-146 369 -110 467 10 27 27 56 38 65 15 12 18 23 13 43 -6 25 -10 26 -69 26
-58 0 -65 -2 -96 -34z"/>
<path d="M5790 2433 c-51 -6 -74 -30 -99 -103 -12 -36 -65 -152 -118 -258 -93
-185 -96 -195 -101 -270 -6 -100 11 -139 77 -182 146 -93 340 -112 1351 -131
479 -9 655 -9 795 1 99 6 184 16 189 21 6 5 27 9 49 9 53 0 77 15 77 48 0 40
-42 62 -122 62 -34 0 -85 7 -112 15 -87 26 -257 34 -921 40 -679 6 -946 17
-1001 40 -18 7 -40 27 -48 43 -14 26 -14 36 -1 83 7 30 30 90 50 134 60 129
105 252 105 285 l0 30 411 0 c417 0 869 -12 1169 -32 212 -14 748 -14 960 0
300 20 752 32 1169 32 l411 0 0 -30 c0 -33 45 -156 105 -285 20 -44 43 -104
50 -134 13 -47 13 -57 -1 -83 -8 -16 -30 -36 -48 -43 -55 -23 -322 -34 -1001
-40 -664 -6 -834 -14 -921 -40 -27 -8 -78 -15 -112 -15 -80 0 -122 -22 -122
-62 0 -33 24 -48 77 -48 22 0 43 -4 49 -9 5 -5 90 -15 189 -21 140 -10 316
-10 795 -1 1011 19 1205 38 1351 131 66 43 83 82 77 182 -5 76 -8 86 -97 261
-50 100 -104 217 -119 260 -16 43 -37 84 -49 92 -26 18 -105 21 -163 5 -58
-16 -58 -16 -615 -3 -486 12 -979 5 -1326 -18 -137 -9 -221 -9 -358 0 -347 23
-840 30 -1326 18 -549 -13 -558 -13 -610 1 -67 18 -79 19 -115 15z"/>
<path d="M7830 1425 c-45 -32 -74 -67 -108 -130 -22 -42 -26 -63 -27 -133 0
-80 1 -85 29 -108 15 -14 41 -28 58 -31 28 -6 28 -6 -21 -23 -95 -32 -153 -94
-192 -206 -39 -110 -6 -247 81 -334 55 -55 162 -104 270 -124 47 -8 106 -20
133 -25 58 -13 129 -1 194 33 104 53 174 166 181 291 9 169 -103 303 -288 344
-25 5 -66 14 -92 20 -26 6 -60 8 -75 6 -15 -3 -41 -1 -58 4 -26 8 -21 9 35 11
36 1 121 1 190 0 109 -1 129 2 158 20 43 26 55 61 49 140 -6 97 -60 193 -137
244 -48 31 -143 38 -154 10 -11 -28 -6 -54 9 -60 27 -11 66 -91 72 -146 l5
-53 -122 0 -122 0 5 53 c6 55 45 135 72 146 15 6 20 32 9 60 -10 27 -111 21
-154 -9z m378 -535 c87 -63 131 -161 118 -262 -18 -130 -115 -216 -258 -226
-61 -4 -72 -2 -106 21 -21 14 -54 48 -72 77 -58 91 -53 226 13 300 58 66 159
119 228 120 25 0 49 -9 77 -30z"/>
</g>
</svg>
